<svg width="701" height="560" viewBox="0 0 701 560" fill="none" xmlns="http://www.w3.org/2000/svg">
<g clip-path="url(#clip0_10987_22298)">
<path d="M288.858 236.627V489.152C288.554 507.742 281.051 525.466 267.966 538.503C254.881 551.54 237.262 558.846 218.908 558.846C200.554 558.846 182.935 551.54 169.85 538.503C156.765 525.466 149.261 507.742 148.958 489.152V236.627C149.261 218.037 156.765 200.313 169.85 187.276C182.935 174.239 200.554 166.933 218.908 166.933C237.262 166.933 254.881 174.239 267.966 187.276C281.051 200.313 288.554 218.037 288.858 236.627Z" fill="white"/>
<path d="M424.979 141.715H139.901C102.797 141.715 67.2124 126.785 40.976 100.208C14.7395 73.6311 0 37.5852 0 0L285.078 0C322.182 0 357.766 14.9307 384.003 41.5075C410.239 68.0842 424.979 104.13 424.979 141.715Z" fill="white"/>
<path d="M620.18 81.9078C594.574 55.9019 564.148 35.2781 530.648 21.2216C497.149 7.16517 461.238 -0.0467783 424.979 0.000228314H337.711C366.153 10.8638 390.655 30.2423 407.958 55.5576C425.261 80.8728 434.544 110.925 434.573 141.716V142.085C458.838 143.824 482.2 152.119 502.227 166.107C522.254 180.095 538.214 199.264 548.446 221.62C558.678 243.976 562.807 268.701 560.405 293.223C558.003 317.744 549.157 341.165 534.787 361.048C520.417 380.931 501.049 396.549 478.699 406.277C456.348 416.005 431.833 419.487 407.703 416.361C383.573 413.235 360.712 403.615 341.498 388.502C322.284 373.389 307.42 353.336 298.452 330.43V489.133C298.44 503.363 294.704 517.336 287.626 529.627C280.548 541.919 270.379 552.091 258.157 559.106H424.96C479.533 559.093 532.877 542.693 578.252 511.979C623.626 481.265 658.994 437.615 679.887 386.545C700.779 335.476 706.258 279.279 695.63 225.056C685.003 170.834 658.747 121.019 620.18 81.9078Z" fill="white"/>
</g>
<defs>
<clipPath id="clip0_10987_22298">
<rect width="701" height="560" fill="white"/>
</clipPath>
</defs>
</svg>
