<svg width="262" height="41" viewBox="0 0 262 41" fill="none" xmlns="http://www.w3.org/2000/svg">
<path d="M21.0417 16.9019V34.9395C21.0195 36.2673 20.4729 37.5333 19.5198 38.4645C18.5666 39.3957 17.2831 39.9176 15.9462 39.9176C14.6092 39.9176 13.3258 39.3957 12.3726 38.4645C11.4194 37.5333 10.8728 36.2673 10.8507 34.9395V16.9019C10.8728 15.5741 11.4194 14.3081 12.3726 13.3769C13.3258 12.4456 14.6092 11.9238 15.9462 11.9238C17.2831 11.9238 18.5666 12.4456 19.5198 13.3769C20.4729 14.3081 21.0195 15.5741 21.0417 16.9019Z" fill="white"/>
<path d="M30.9573 10.1225H10.191C7.48815 10.1225 4.89604 9.05605 2.98486 7.1577C1.07369 5.25936 0 2.68466 0 0H20.7663C23.4691 0 26.0612 1.06648 27.9724 2.96482C29.8836 4.86316 30.9573 7.43786 30.9573 10.1225Z" fill="white"/>
<path d="M45.1765 5.85056C43.3113 3.99299 41.0949 2.51986 38.6547 1.51583C36.2145 0.511799 33.5986 -0.00334044 30.9573 1.71759e-05H24.6003C26.6721 0.775988 28.457 2.16016 29.7174 3.9684C30.9778 5.77663 31.654 7.9232 31.6561 10.1225V10.1489C33.4237 10.2731 35.1255 10.8656 36.5844 11.8648C38.0432 12.8639 39.2058 14.2332 39.9511 15.83C40.6965 17.4269 40.9973 19.193 40.8223 20.9445C40.6473 22.696 40.0029 24.3689 38.9561 25.7891C37.9094 27.2093 36.4985 28.3249 34.8704 29.0198C33.2424 29.7146 31.4565 29.9634 29.6988 29.7401C27.9411 29.5168 26.2758 28.8296 24.8762 27.7501C23.4765 26.6707 22.3938 25.2383 21.7405 23.6021V34.9381C21.7396 35.9545 21.4675 36.9525 20.9519 37.8305C20.4363 38.7085 19.6956 39.4351 18.8053 39.9362H30.9559C34.9312 39.9352 38.817 38.7638 42.1223 36.5699C45.4276 34.376 48.004 31.2582 49.5258 27.6104C51.0477 23.9626 51.4468 19.9485 50.6727 16.0755C49.8985 12.2024 47.9859 8.64424 45.1765 5.85056Z" fill="white"/>
<path d="M66.4 40V7.6H74.6C77.4267 7.6 79.6267 7.96 81.2 8.68C82.7733 9.37333 83.88 10.48 84.52 12C85.16 13.4933 85.48 15.44 85.48 17.84V29.6C85.48 32.0267 85.16 34.0133 84.52 35.56C83.88 37.08 82.7733 38.2 81.2 38.92C79.6533 39.64 77.48 40 74.68 40H66.4ZM73.56 35.04H74.68C75.7733 35.04 76.56 34.88 77.04 34.56C77.52 34.24 77.8133 33.76 77.92 33.12C78.0533 32.48 78.12 31.68 78.12 30.72V16.6C78.12 15.64 78.04 14.8667 77.88 14.28C77.7467 13.6933 77.44 13.2667 76.96 13C76.48 12.7333 75.7067 12.6 74.64 12.6H73.56V35.04Z" fill="white"/>
<path d="M97.0375 40.4C95.3575 40.4 93.9175 40.1067 92.7175 39.52C91.5175 38.9067 90.5975 38.0267 89.9575 36.88C89.3175 35.7067 88.9975 34.3067 88.9975 32.68V24.2C88.9975 22.5467 89.3175 21.1467 89.9575 20C90.5975 18.8533 91.5175 17.9867 92.7175 17.4C93.9442 16.7867 95.3842 16.48 97.0375 16.48C98.7442 16.48 100.158 16.7733 101.278 17.36C102.424 17.9467 103.278 18.8133 103.838 19.96C104.424 21.1067 104.717 22.52 104.717 24.2V28.84H95.4375V33.28C95.4375 33.8667 95.5042 34.3467 95.6375 34.72C95.7708 35.0933 95.9575 35.36 96.1975 35.52C96.4375 35.68 96.7175 35.76 97.0375 35.76C97.3575 35.76 97.6375 35.6933 97.8775 35.56C98.1442 35.4 98.3442 35.16 98.4775 34.84C98.6375 34.52 98.7175 34.08 98.7175 33.52V31.08H104.717V33.32C104.717 35.6667 104.037 37.44 102.677 38.64C101.317 39.8133 99.4375 40.4 97.0375 40.4ZM95.4375 25.8H98.7175V23.48C98.7175 22.8667 98.6375 22.3867 98.4775 22.04C98.3442 21.6933 98.1442 21.4533 97.8775 21.32C97.6375 21.1867 97.3442 21.12 96.9975 21.12C96.6775 21.12 96.3975 21.2 96.1575 21.36C95.9442 21.52 95.7708 21.8 95.6375 22.2C95.5042 22.5733 95.4375 23.12 95.4375 23.84V25.8Z" fill="white"/>
<path d="M113.027 40.4C111.853 40.4 110.867 40.12 110.067 39.56C109.267 39 108.667 38.2933 108.267 37.44C107.867 36.56 107.667 35.6667 107.667 34.76C107.667 33.32 107.947 32.1067 108.507 31.12C109.093 30.1333 109.853 29.3067 110.787 28.64C111.72 27.9733 112.747 27.4133 113.867 26.96C114.987 26.48 116.093 26.0533 117.187 25.68V23.36C117.187 22.96 117.147 22.6133 117.067 22.32C116.987 22 116.853 21.76 116.667 21.6C116.48 21.4133 116.2 21.32 115.827 21.32C115.453 21.32 115.16 21.4 114.947 21.56C114.76 21.72 114.627 21.9467 114.547 22.24C114.467 22.5067 114.413 22.8133 114.387 23.16L114.227 24.84L108.147 24.6C108.28 21.8267 109.013 19.7867 110.347 18.48C111.707 17.1467 113.733 16.48 116.427 16.48C118.773 16.48 120.52 17.1333 121.667 18.44C122.84 19.72 123.427 21.3867 123.427 23.44V34.24C123.427 35.2 123.44 36.04 123.467 36.76C123.52 37.48 123.573 38.1067 123.627 38.64C123.707 39.1733 123.773 39.6267 123.827 40H117.987C117.907 39.3867 117.813 38.72 117.707 38C117.6 37.28 117.52 36.8533 117.467 36.72C117.2 37.68 116.693 38.5333 115.947 39.28C115.227 40.0267 114.253 40.4 113.027 40.4ZM115.347 36C115.613 36 115.853 35.9467 116.067 35.84C116.307 35.7333 116.52 35.5867 116.707 35.4C116.893 35.2133 117.053 35.0267 117.187 34.84V28.52C116.653 28.84 116.16 29.1733 115.707 29.52C115.253 29.84 114.867 30.2 114.547 30.6C114.227 31 113.973 31.44 113.787 31.92C113.627 32.3733 113.547 32.8933 113.547 33.48C113.547 34.2533 113.707 34.8667 114.027 35.32C114.347 35.7733 114.787 36 115.347 36Z" fill="white"/>
<path d="M127.57 40V7.6H134.05V40H127.57Z" fill="white"/>
<path d="M145.827 40.4C144.147 40.4 142.707 40.1067 141.507 39.52C140.307 38.9067 139.387 38.0267 138.747 36.88C138.107 35.7067 137.787 34.3067 137.787 32.68V24.2C137.787 22.5467 138.107 21.1467 138.747 20C139.387 18.8533 140.307 17.9867 141.507 17.4C142.733 16.7867 144.173 16.48 145.827 16.48C147.533 16.48 148.947 16.7733 150.067 17.36C151.213 17.9467 152.067 18.8133 152.627 19.96C153.213 21.1067 153.507 22.52 153.507 24.2V28.84H144.227V33.28C144.227 33.8667 144.293 34.3467 144.427 34.72C144.56 35.0933 144.747 35.36 144.987 35.52C145.227 35.68 145.507 35.76 145.827 35.76C146.147 35.76 146.427 35.6933 146.667 35.56C146.933 35.4 147.133 35.16 147.267 34.84C147.427 34.52 147.507 34.08 147.507 33.52V31.08H153.507V33.32C153.507 35.6667 152.827 37.44 151.467 38.64C150.107 39.8133 148.227 40.4 145.827 40.4ZM144.227 25.8H147.507V23.48C147.507 22.8667 147.427 22.3867 147.267 22.04C147.133 21.6933 146.933 21.4533 146.667 21.32C146.427 21.1867 146.133 21.12 145.787 21.12C145.467 21.12 145.187 21.2 144.947 21.36C144.733 21.52 144.56 21.8 144.427 22.2C144.293 22.5733 144.227 23.12 144.227 23.84V25.8Z" fill="white"/>
<path d="M157.136 40V16.88H163.656V20.72C164.402 19.3867 165.149 18.3733 165.896 17.68C166.642 16.96 167.549 16.6 168.616 16.6C168.829 16.6 169.016 16.6133 169.176 16.64C169.336 16.64 169.482 16.6667 169.616 16.72V23.2C169.322 23.0667 168.989 22.96 168.616 22.88C168.269 22.7733 167.896 22.72 167.496 22.72C166.749 22.72 166.056 22.92 165.416 23.32C164.776 23.72 164.189 24.2667 163.656 24.96V40H157.136Z" fill="white"/>
<path d="M179.528 40.24C177.795 40.24 176.448 39.9867 175.488 39.48C174.555 38.9733 173.915 38.24 173.568 37.28C173.221 36.2933 173.048 35.1067 173.048 33.72V21.16H170.808V16.88H173.048V9.84H179.648V16.88H182.928V21.16H179.648V33.08C179.648 33.7467 179.835 34.2267 180.208 34.52C180.608 34.8133 181.101 34.96 181.688 34.96C182.035 34.96 182.355 34.9467 182.648 34.92C182.941 34.8667 183.208 34.8267 183.448 34.8V39.92C183.101 39.9733 182.555 40.04 181.808 40.12C181.061 40.2 180.301 40.24 179.528 40.24Z" fill="white"/>
<path d="M194.109 40.4C192.455 40.4 191.015 40.12 189.789 39.56C188.589 39 187.655 38.16 186.989 37.04C186.349 35.92 186.029 34.52 186.029 32.84V24.04C186.029 22.36 186.349 20.96 186.989 19.84C187.655 18.72 188.589 17.88 189.789 17.32C191.015 16.76 192.455 16.48 194.109 16.48C195.762 16.48 197.189 16.76 198.389 17.32C199.615 17.88 200.562 18.72 201.229 19.84C201.895 20.96 202.229 22.36 202.229 24.04V32.84C202.229 34.52 201.895 35.92 201.229 37.04C200.562 38.16 199.615 39 198.389 39.56C197.189 40.12 195.762 40.4 194.109 40.4ZM194.149 36.08C194.575 36.08 194.909 35.9733 195.149 35.76C195.389 35.52 195.549 35.2 195.629 34.8C195.735 34.3733 195.789 33.8667 195.789 33.28V23.6C195.789 23.0133 195.735 22.52 195.629 22.12C195.549 21.6933 195.389 21.3733 195.149 21.16C194.909 20.92 194.575 20.8 194.149 20.8C193.722 20.8 193.389 20.92 193.149 21.16C192.909 21.3733 192.735 21.6933 192.629 22.12C192.522 22.52 192.469 23.0133 192.469 23.6V33.28C192.469 33.8667 192.522 34.3733 192.629 34.8C192.735 35.2 192.909 35.52 193.149 35.76C193.389 35.9733 193.722 36.08 194.149 36.08Z" fill="white"/>
<path d="M209.925 40.4C208.991 40.4 208.191 40.1733 207.525 39.72C206.885 39.24 206.405 38.5867 206.085 37.76C205.765 36.9333 205.605 36.0133 205.605 35V16.88H212.125V34.24C212.125 34.8 212.218 35.24 212.405 35.56C212.618 35.8533 212.978 36 213.485 36C213.778 36 214.085 35.9333 214.405 35.8C214.725 35.64 215.058 35.4667 215.405 35.28V16.88H221.885V40H215.405V37.88C214.578 38.6533 213.698 39.2667 212.765 39.72C211.858 40.1733 210.911 40.4 209.925 40.4Z" fill="white"/>
<path d="M233.521 40.4C231.841 40.4 230.401 40.0933 229.201 39.48C228.028 38.8667 227.121 37.9867 226.481 36.84C225.841 35.6933 225.521 34.3067 225.521 32.68V24.2C225.521 22.5467 225.841 21.1467 226.481 20C227.121 18.8533 228.028 17.9867 229.201 17.4C230.401 16.7867 231.841 16.48 233.521 16.48C235.174 16.48 236.574 16.7333 237.721 17.24C238.894 17.7467 239.788 18.52 240.401 19.56C241.014 20.5733 241.321 21.8667 241.321 23.44V25.88H235.041V23.24C235.041 22.6267 234.974 22.16 234.841 21.84C234.734 21.4933 234.561 21.2533 234.321 21.12C234.108 20.9867 233.841 20.92 233.521 20.92C233.201 20.92 232.934 21.0133 232.721 21.2C232.508 21.36 232.348 21.64 232.241 22.04C232.134 22.4133 232.081 22.9467 232.081 23.64V33.24C232.081 34.28 232.201 34.9867 232.441 35.36C232.708 35.7333 233.081 35.92 233.561 35.92C233.908 35.92 234.188 35.8533 234.401 35.72C234.614 35.56 234.774 35.32 234.881 35C234.988 34.6533 235.041 34.2 235.041 33.64V30.56H241.321V33.36C241.321 34.9067 241.001 36.2133 240.361 37.28C239.748 38.32 238.854 39.1067 237.681 39.64C236.534 40.1467 235.148 40.4 233.521 40.4Z" fill="white"/>
<path d="M244.752 40V7.6H251.232V18.92C252.085 18.0667 252.979 17.4533 253.912 17.08C254.845 16.68 255.845 16.48 256.912 16.48C257.845 16.48 258.619 16.72 259.232 17.2C259.872 17.6533 260.352 18.2933 260.672 19.12C260.992 19.92 261.152 20.84 261.152 21.88V40H254.672V22.8C254.672 22.24 254.579 21.8133 254.392 21.52C254.205 21.2267 253.859 21.08 253.352 21.08C253.085 21.08 252.765 21.16 252.392 21.32C252.019 21.4533 251.632 21.6533 251.232 21.92V40H244.752Z" fill="white"/>
</svg>
