<svg version="1.1" id="OBJECTS" xmlns="http://www.w3.org/2000/svg" xmlns:xlink="http://www.w3.org/1999/xlink" x="0px" y="0px"
	 viewBox="0 0 500 500" style="enable-background:new 0 0 500 500;" xml:space="preserve">
<style type="text/css">
	.st0{fill:#A3A3FF;}
	.st1{fill:#E3E1FF;}
	.st2{fill:#B4B7FF;}
	.st3{fill:url(#SVGID_1_);}
	.st4{fill:#3434E0;}
	.st5{fill:#FA768D;}
	.st6{fill:#FFFFFF;}
	.st7{fill:#15CCBE;}
	.st8{fill:#25D8C6;}
	.st9{fill:#17DDD8;}
	.st10{fill:#FA968C;}
	.st11{opacity:0.15;}
	.st12{fill:#16DDD7;}
	.st13{fill:#0073AA;}
	.st14{fill:#195FA0;}
	.st15{fill:#A03C19;}
	.st16{fill:#0091C8;}
	.st17{fill:#CD5014;}
	.st18{fill:#FAB9AF;}
	.st19{fill:#FF8C46;}
	.st20{fill:#00558C;}
	.st21{fill:#415050;}
	.st22{fill:#3C4646;}
	.st23{fill:#0E67AA;}
	.st24{fill:#1D3F72;}
	.st25{fill:#4193B7;}
	.st26{fill:#1C538E;}
	.st27{fill:#0D2644;}
	.st28{fill:none;stroke:#7DEFE9;stroke-linecap:round;stroke-linejoin:round;stroke-miterlimit:10;}
	.st29{opacity:0.75;fill:#15CCBE;}
	.st30{fill:none;stroke:#6CEFE8;stroke-linecap:round;stroke-linejoin:round;stroke-miterlimit:10;}
	.st31{fill:#55696E;}
	.st32{fill:#C8E6EB;}
</style>
<g>
	<path class="st0" d="M465.6,179.9H285.9c-2.4,0-4.3,1.9-4.3,4.3v210.5c0,2.4,1.9,4.3,4.3,4.3h179.7c2.4,0,4.3-1.9,4.3-4.3V184.2
		C469.9,181.8,468,179.9,465.6,179.9z"/>
	<rect x="299.8" y="207.8" class="st1" width="151.5" height="172"/>
	<path class="st2" d="M309.8,197.7h-8.5c-0.6,0-1.1-0.5-1.1-1.1v-5.7c0-0.6,0.5-1.1,1.1-1.1h8.5c0.6,0,1.1,0.5,1.1,1.1v5.7
		C310.9,197.2,310.4,197.7,309.8,197.7z"/>
	<path class="st2" d="M325.4,197.7h-8.5c-0.6,0-1.1-0.5-1.1-1.1v-5.7c0-0.6,0.5-1.1,1.1-1.1h8.5c0.6,0,1.1,0.5,1.1,1.1v5.7
		C326.5,197.2,326,197.7,325.4,197.7z"/>
	<path class="st2" d="M341,197.7h-8.5c-0.6,0-1.1-0.5-1.1-1.1v-5.7c0-0.6,0.5-1.1,1.1-1.1h8.5c0.6,0,1.1,0.5,1.1,1.1v5.7
		C342.1,197.2,341.6,197.7,341,197.7z"/>
	<rect x="353.1" y="191.3" class="st2" width="98.1" height="4"/>
	<g>
		<path class="st2" d="M432.2,300.5V356H318.8v-55.4H432.2 M433.1,299.6H317.9v57.2h115.2V299.6L433.1,299.6z"/>
	</g>
	<rect x="346.9" y="219.8" class="st2" width="84.6" height="9.2"/>
	<rect x="346.9" y="236.3" class="st2" width="84.6" height="9.2"/>
	<rect x="346.9" y="252.9" class="st2" width="84.6" height="9.2"/>
	<rect x="346.9" y="269.5" class="st2" width="84.6" height="9.2"/>
	<path class="st2" d="M329.6,229h-5.5c-2.6,0-4.6-2.1-4.6-4.6l0,0c0-2.6,2.1-4.6,4.6-4.6h5.5c2.6,0,4.6,2.1,4.6,4.6l0,0
		C334.2,226.9,332.1,229,329.6,229z"/>
	<path class="st2" d="M329.6,245.6h-5.5c-2.6,0-4.6-2.1-4.6-4.6l0,0c0-2.6,2.1-4.6,4.6-4.6h5.5c2.6,0,4.6,2.1,4.6,4.6l0,0
		C334.2,243.5,332.1,245.6,329.6,245.6z"/>
	<path class="st2" d="M329.6,262.2h-5.5c-2.6,0-4.6-2.1-4.6-4.6l0,0c0-2.6,2.1-4.6,4.6-4.6h5.5c2.6,0,4.6,2.1,4.6,4.6l0,0
		C334.2,260.1,332.1,262.2,329.6,262.2z"/>
	<path class="st2" d="M329.6,278.7h-5.5c-2.6,0-4.6-2.1-4.6-4.6l0,0c0-2.6,2.1-4.6,4.6-4.6h5.5c2.6,0,4.6,2.1,4.6,4.6l0,0
		C334.2,276.7,332.1,278.7,329.6,278.7z"/>
</g>
<g>
	<path class="st0" d="M188.2,367.1V251.6c0-3.4-2.8-6.2-6.2-6.2H6.2c-3.4,0-6.2,2.8-6.2,6.2v115.5c0,5,4.1,9.1,9.1,9.1h170.1
		C184.2,376.1,188.2,372.1,188.2,367.1z"/>
	<rect x="18.1" y="273.2" class="st1" width="151.5" height="89.7"/>
	<path class="st1" d="M28.1,263.2h-8.5c-0.6,0-1.1-0.5-1.1-1.1v-5.7c0-0.6,0.5-1.1,1.1-1.1h8.5c0.6,0,1.1,0.5,1.1,1.1v5.7
		C29.2,262.7,28.7,263.2,28.1,263.2z"/>
	<path class="st1" d="M43.8,263.2h-8.5c-0.6,0-1.1-0.5-1.1-1.1v-5.7c0-0.6,0.5-1.1,1.1-1.1h8.5c0.6,0,1.1,0.5,1.1,1.1v5.7
		C44.9,262.7,44.4,263.2,43.8,263.2z"/>
	<path class="st1" d="M59.4,263.2h-8.5c-0.6,0-1.1-0.5-1.1-1.1v-5.7c0-0.6,0.5-1.1,1.1-1.1h8.5c0.6,0,1.1,0.5,1.1,1.1v5.7
		C60.5,262.7,60,263.2,59.4,263.2z"/>
	<rect x="71.5" y="256.8" class="st1" width="98.1" height="4"/>
	<rect x="65.3" y="285.2" class="st2" width="84.6" height="9.2"/>
	<rect x="65.3" y="301.8" class="st2" width="84.6" height="9.2"/>
	<rect x="65.3" y="318.4" class="st2" width="84.6" height="9.2"/>
	<rect x="65.3" y="334.9" class="st2" width="84.6" height="9.2"/>
	<path class="st2" d="M47.9,294.4h-5.5c-2.6,0-4.6-2.1-4.6-4.6l0,0c0-2.6,2.1-4.6,4.6-4.6h5.5c2.6,0,4.6,2.1,4.6,4.6l0,0
		C52.6,292.4,50.5,294.4,47.9,294.4z"/>
	<path class="st2" d="M47.9,311h-5.5c-2.6,0-4.6-2.1-4.6-4.6l0,0c0-2.6,2.1-4.6,4.6-4.6h5.5c2.6,0,4.6,2.1,4.6,4.6l0,0
		C52.6,309,50.5,311,47.9,311z"/>
	<path class="st2" d="M47.9,327.6h-5.5c-2.6,0-4.6-2.1-4.6-4.6l0,0c0-2.6,2.1-4.6,4.6-4.6h5.5c2.6,0,4.6,2.1,4.6,4.6l0,0
		C52.6,325.5,50.5,327.6,47.9,327.6z"/>
	<path class="st2" d="M47.9,344.2h-5.5c-2.6,0-4.6-2.1-4.6-4.6l0,0c0-2.6,2.1-4.6,4.6-4.6h5.5c2.6,0,4.6,2.1,4.6,4.6l0,0
		C52.6,342.1,50.5,344.2,47.9,344.2z"/>
</g>
<linearGradient id="SVGID_1_" gradientUnits="userSpaceOnUse" x1="238.5609" y1="398.9455" x2="238.5609" y2="82.3472">
	<stop  offset="0" style="stop-color:#5F6AFF"/>
	<stop  offset="1" style="stop-color:#3434E0"/>
</linearGradient>
<path class="st3" d="M325.6,398.9h-174c-8.3,0-15-6.7-15-15V97.4c0-8.3,6.7-15,15-15h174c8.3,0,15,6.7,15,15v286.5
	C340.6,392.2,333.9,398.9,325.6,398.9z"/>
<path class="st0" d="M314.9,383.6H161.8c-5.7,0-10.4-4.6-10.4-10.4V108.8c0-5.7,4.6-10.4,10.4-10.4h153.1c5.7,0,10.4,4.6,10.4,10.4
	v264.4C325.2,378.9,320.6,383.6,314.9,383.6z"/>
<path class="st4" d="M269.5,109.6h-64.2c-3.5,0-6.4-2.9-6.4-6.4v-9h77v9C275.9,106.7,273.1,109.6,269.5,109.6z"/>
<path class="st5" d="M73.3,395.6V384h-5c-0.5-2-1.3-3.8-2.3-5.5l3.6-3.6l-8.2-8.2l-3.6,3.6c-1.7-1-3.6-1.8-5.5-2.3v-5H40.5v5
	c-2,0.5-3.8,1.3-5.5,2.3l-3.6-3.6l-8.2,8.2l3.6,3.6c-1,1.7-1.8,3.6-2.3,5.5h-5v11.7h5c0.5,2,1.3,3.8,2.3,5.5l-3.6,3.6l8.2,8.2
	l3.6-3.6c1.7,1,3.6,1.8,5.5,2.3v5h11.7v-5c2-0.5,3.8-1.3,5.5-2.3l3.6,3.6l8.2-8.2l-3.6-3.6c1-1.7,1.8-3.6,2.3-5.5H73.3z M46.4,403
	c-7.3,0-13.2-5.9-13.2-13.2s5.9-13.2,13.2-13.2c7.3,0,13.2,5.9,13.2,13.2S53.7,403,46.4,403z"/>
<g>
	<path class="st6" d="M313.6,321.1c1.9,0,3.5,1.6,3.5,3.5v36.3c0,1.9-1.6,3.5-3.5,3.5H163.5c-1.9,0-3.5-1.6-3.5-3.5v-36.3
		c0-1.9,1.6-3.5,3.5-3.5H313.6 M313.6,320.3H163.5c-2.4,0-4.3,1.9-4.3,4.3v36.3c0,2.4,1.9,4.3,4.3,4.3h150.1c2.4,0,4.3-1.9,4.3-4.3
		v-36.3C318,322.2,316,320.3,313.6,320.3L313.6,320.3z"/>
</g>
<g>
	<rect x="261.8" y="352" class="st7" width="99.1" height="63.5"/>
	<polygon class="st8" points="311.4,383.7 261.8,415.5 360.9,415.5 	"/>
	<polygon class="st9" points="360.9,352 261.8,352 311.4,397 	"/>
</g>
<path class="st10" d="M296.8,313.6c-1.7-1.8,0.7-4.5,2.8-3c21.8,16.6,41,21.8,55.1-2.1c1.1-1.8,3.3-6.1,3.9-8.1c1-3.8,5-6.1,8.8-5
	c4.2,1.1,6.4,5.6,4.8,9.6C363.7,325.8,334.5,354.7,296.8,313.6z"/>
<path class="st11" d="M242.1,215.4H91.9c-2.4,0-4.3-1.9-4.3-4.3v-36.3c0-2.4,1.9-4.3,4.3-4.3h150.1c2.4,0,4.3,1.9,4.3,4.3v36.3
	C246.4,213.5,244.5,215.4,242.1,215.4z"/>
<path class="st6" d="M242.1,213.1H91.9c-2.4,0-4.3-1.9-4.3-4.3v-36.3c0-2.4,1.9-4.3,4.3-4.3h150.1c2.4,0,4.3,1.9,4.3,4.3v36.3
	C246.4,211.1,244.5,213.1,242.1,213.1z"/>
<g>
	<path class="st6" d="M313.6,127.3c1.9,0,3.5,1.6,3.5,3.5v36.3c0,1.9-1.6,3.5-3.5,3.5H163.5c-1.9,0-3.5-1.6-3.5-3.5v-36.3
		c0-1.9,1.6-3.5,3.5-3.5H313.6 M313.6,126.5H163.5c-2.4,0-4.3,1.9-4.3,4.3v36.3c0,2.4,1.9,4.3,4.3,4.3h150.1c2.4,0,4.3-1.9,4.3-4.3
		v-36.3C318,128.4,316,126.5,313.6,126.5L313.6,126.5z"/>
</g>
<g>
	<path class="st6" d="M313.6,191.9c1.9,0,3.5,1.6,3.5,3.5v36.3c0,1.9-1.6,3.5-3.5,3.5H163.5c-1.9,0-3.5-1.6-3.5-3.5v-36.3
		c0-1.9,1.6-3.5,3.5-3.5H313.6 M313.6,191.1H163.5c-2.4,0-4.3,1.9-4.3,4.3v36.3c0,2.4,1.9,4.3,4.3,4.3h150.1c2.4,0,4.3-1.9,4.3-4.3
		v-36.3C318,193,316,191.1,313.6,191.1L313.6,191.1z"/>
</g>
<g>
	<path class="st6" d="M313.6,257.7c1.9,0,3.5,1.6,3.5,3.5v36.3c0,1.9-1.6,3.5-3.5,3.5H163.5c-1.9,0-3.5-1.6-3.5-3.5v-36.3
		c0-1.9,1.6-3.5,3.5-3.5H313.6 M313.6,256.9H163.5c-2.4,0-4.3,1.9-4.3,4.3v36.3c0,2.4,1.9,4.3,4.3,4.3h150.1c2.4,0,4.3-1.9,4.3-4.3
		v-36.3C318,258.8,316,256.9,313.6,256.9L313.6,256.9z"/>
</g>
<path class="st12" d="M120.9,204.7H99.8c-1,0-1.8-0.8-1.8-1.8v-24.7c0-1,0.8-1.8,1.8-1.8h21.1c1,0,1.8,0.8,1.8,1.8v24.7
	C122.7,203.9,121.9,204.7,120.9,204.7z"/>
<rect x="133.4" y="176.4" class="st12" width="64.7" height="3.5"/>
<rect x="133.4" y="188.3" class="st12" width="99.5" height="3.5"/>
<rect x="133.4" y="200.2" class="st12" width="99.5" height="3.5"/>
<path class="st11" d="M333.6,360.4H183.5c-2.4,0-4.3-1.9-4.3-4.3v-36.3c0-2.4,1.9-4.3,4.3-4.3h150.1c2.4,0,4.3,1.9,4.3,4.3V356
	C338,358.4,336,360.4,333.6,360.4z"/>
<path class="st6" d="M333.6,358H183.5c-2.4,0-4.3-1.9-4.3-4.3v-36.3c0-2.4,1.9-4.3,4.3-4.3h150.1c2.4,0,4.3,1.9,4.3,4.3v36.3
	C338,356,336,358,333.6,358z"/>
<path class="st5" d="M212.5,346h-21.1c-1,0-1.8-0.8-1.8-1.8v-24.7c0-1,0.8-1.8,1.8-1.8h21.1c1,0,1.8,0.8,1.8,1.8v24.7
	C214.3,345.2,213.5,346,212.5,346z"/>
<rect x="243.7" y="321.4" class="st5" width="64.7" height="3.5"/>
<rect x="226.3" y="333.3" class="st5" width="99.5" height="3.5"/>
<rect x="226.3" y="345.1" class="st5" width="99.5" height="3.5"/>
<g>
	<path class="st10" d="M141.3,359.6c0.2,4.7,3.1,30.5,5.1,47.1c1,8.4,1.1,14.5,1.9,14.3c2-0.6,8.3-55.1,7.9-62.2
		c-0.4-7-4-12.6-8.1-12.4C144,346.7,140.9,352.6,141.3,359.6z"/>
	<path class="st13" d="M151.6,407.7c-0.7,0-4.9,0.5-5.7,0.7c-2.5-16.7-5.5-44.7-5.2-49.6c0-0.5,0.1-1,0.1-1.6c0.9-7,0.9-14.1-0.7-21
		c-3.6-15.6-6.4-32.6-6.7-37.3c-0.6-9.2,4.7-17,11.9-17.5s13,5.9,14.2,15C162.2,318.6,151.6,407.4,151.6,407.7z"/>
	<path class="st14" d="M158.5,336.9L158.5,336.9c1.3-17.1,1.9-32.7,1-40.3c-1.1-9.2-7-15.5-14.2-15s-12.5,8.3-11.9,17.5
		c0.1,1.1,0.3,3,0.6,5.3c10.6,4.2,18.2,13.9,20.3,25.4C154.9,332.5,156.3,335.1,158.5,336.9z"/>
	<path class="st10" d="M145.8,407.8c0,0,0.4,12-0.6,14.3c-1,2.3-1.2,4.9,1.9,4.9c3.1,0,10.5,0,11.5-0.1c2-0.1,3.7-0.3,3.7-1.6
		c0-1.3-9.2-1.7-10.9-3s-0.5-13.8-0.5-13.8L145.8,407.8z"/>
	<path class="st15" d="M157.8,423.8c-1.7,0.6-3.6,1-5.5,1c-2.6,0-5.1-0.7-7.4-1.8c-0.6,2-0.5,3.9,2.3,3.9c3.1,0,10.5,0,11.5-0.1
		c2-0.1,3.7-0.3,3.7-1.6C162.4,424.6,160.2,424.2,157.8,423.8z"/>
	<path class="st10" d="M157.3,361.3c0.2,4.7,3.1,30.5,5.1,47.1c1,8.4,1.1,14.5,1.9,14.3c2-0.6,8.3-55.1,7.9-62.2
		c-0.4-7-4-12.6-8.1-12.4C160,348.3,157,354.2,157.3,361.3z"/>
	<path class="st16" d="M167.6,409.4c-0.7,0-4.9,0.5-5.7,0.7c-2.5-16.7-5.5-44.7-5.2-49.6c0-0.5,0.1-1,0.1-1.6c0.9-7,0.9-14.1-0.7-21
		c-3.6-15.6-6.4-32.6-6.7-37.3c-0.6-9.2,4.7-17,11.9-17.5c7.1-0.5,13,5.9,14.2,15C178.3,320.3,167.6,409,167.6,409.4z"/>
	<path class="st10" d="M161.9,409.4c0,0,0.4,12-0.6,14.3c-1,2.3-1.4,5,1.9,4.9c3.1-0.1,9-0.3,10.1-0.4c2.7-0.3,5.7-0.2,5.7-1.5
		c0-1.3-9.7-1.4-11.5-2.8s-0.5-13.8-0.5-13.8L161.9,409.4z"/>
	<path class="st17" d="M173,425.2c-1.7,0.6-3.6,1-5.5,1c-2.3,0-4.6-0.5-6.6-1.4c-0.6,2-0.5,4,2.3,3.8c3.1-0.1,9-0.3,10.1-0.4
		c2.7-0.3,5.7-0.2,5.7-1.5C179,425.9,176,425.6,173,425.2z"/>
	<path class="st18" d="M159.2,223.6c-2.1,0-4.4-1.1-7.6-3.8c-1.8-1.6-3.2-4.4-3.2-6.2v-10.4h16c0,0,1.2,5.5,0,11
		C163.5,218.2,160.8,223.6,159.2,223.6z"/>
	<path class="st18" d="M103.1,221c-0.1-1.1,0.7-2,1.8-2.1c1-0.1,1.8,0.5,2,1.4l0,0c1.6,6.2,3.4,12.3,5.6,18
		c4.7,11.9,8.8,13.6,10.3,14.6c0.2,0.1,1,0.3,1.2,0.3c4.5,1,12.5-8.8,13.8-16.5c0-0.4,1-3.1,0.9-2.8c1.2-3.4,4.8-5.1,8.2-4
		C167.4,237.2,110.3,308,103.1,221z"/>
	<path class="st18" d="M137.2,294.6c5.8,6.7,39.6,9.5,39.6,9.5c2.5-2.9-9.1-35.9-9.1-35.9s5.6-23.8,5.3-32.4c-0.1-3.5-3-6.4-6.6-6.4
		H145c-3.3,0-6,2.5-6.3,5.8c-0.6,6.8,8.3,32.2,8.3,32.2S132.1,288.9,137.2,294.6z"/>
	<path class="st19" d="M167.6,268.3c0,0,5.6-24.5,5.3-32.9c-0.1-3.2-2.7-5.8-6-5.8h-3.2c-1.2,2.8-3.8,5-7.8,5c-4,0-6.5-2.2-7.7-5h-3
		c3.2,6.9,2.1,16.1-3.5,21.4c2.4,8.4,5.2,16.6,5.2,16.6s-15.7,23.8-13.4,27.3c4.9,7.5,43.2,9.3,43.2,9.3
		C179.2,300.5,167.6,268.3,167.6,268.3z"/>
	<g>
		<polygon class="st18" points="152.6,231 162.3,230 159.2,219.4 152.9,220.1 		"/>
	</g>
	<path class="st10" d="M152.9,220.1l6.3-0.8l1,3.3c-1.4,1.6-3.2,5-5.5,5c-0.7,0-1.4-0.2-2-0.6L152.9,220.1z"/>
	<path class="st20" d="M151.1,198.2l5.4-0.3c1.5-0.1,3-0.6,4.3-1.4c1.8-1.2,4.3-1,5.7,0.7c1.5,1.8,2.3,4.3-1.1,6.9
		c-1.7,1.3-4.4,0.2-6,0.8c-0.1,0-0.2,0-0.3,0l-4.8,0.3c-1.7,0.1-2.7,1.6-2.7,3.3c0,1-0.7,2.3-0.7,2.3l-2.2-2.8l-2.1-1.7
		c-0.5-0.4-0.7-0.9-0.8-1.5l0-0.3C145.4,201.1,147.8,198.4,151.1,198.2z"/>
	<path class="st18" d="M211,212.5c0,0-2.6,5-1.4,6.3s2.3,1.9,4.3,0.2c2-1.8,3.8-5.1,4.5-7.3c0.7-2.2,0.3-6.5,0-6.9
		c-1.2-1.6-2.1,2.6-2.6,4.6c-0.5,2-1.3,4.2-2.2,3.7c-0.9-0.5,0.4-4.3-0.4-5.2S211,212.5,211,212.5z"/>
	<path class="st18" d="M104.8,212.6c0,0,2.5,5.1,1.2,6.3c-1.3,1.3-2.4,1.9-4.3,0.1c-1.9-1.8-3.7-5.2-4.3-7.5
		c-0.7-2.2-0.2-6.5,0.2-6.9c1.3-1.5,2,2.7,2.5,4.7c0.5,2,1.2,4.2,2.1,3.7c0.9-0.5-0.3-4.3,0.6-5.2
		C103.6,206.9,104.8,212.6,104.8,212.6z"/>
	<path class="st18" d="M183.1,249.1c5.7,6.5,10,3.1,14.9-4.1c2.1-3.6,4.7-6.5,11.6-26.1l0,0c0.8-2.2,4-1.4,3.7,0.9
		c-6.8,59.4-39.1,50.1-48.7,23.5c-0.7-2-1.3-3.9-1.4-7c-0.1-3.7,2.9-6.8,6.6-6.8c3.7-0.1,6.8,2.9,6.8,6.6
		C176.7,238.5,179.2,244.7,183.1,249.1z"/>
	<path class="st20" d="M174.2,238c-2-1.5-2.9-3.9-2.7-6.4c0.3-5.1-2.8-9.7-6.7-13.3c-2.7-2.5-4-6.2-3.6-9.9l0.5-4.8h-16.1l0,0
		c0,4-1.8,7.7-5,10.1c-3.6,2.6-6.6,6.4-8.4,11.1c-4.4,11.3-0.1,23.6,9.5,28.1c-2.5,10.7,2.2,21.5,11.6,25.2c10.4,4,22.5-2.2,27.1-14
		C184.2,254.2,181.4,243.5,174.2,238z"/>
</g>
<path class="st21" d="M373.1,407.9c-3-0.3-4.8-3.5-3.6-6.2c5.1-11.5,9.2-24.3,10.1-29.1c1.8-9.8-4.4-19.2-13.9-21
	c-9.5-1.8-12.6,5-14.4,14.8c-1.4,7.6-5.3,36.8-2.4,50.2c0,0.1,2.2,10.9,13,10.9c7.3,0,70.2-2.3,70.3-7.9
	C432.1,415.1,393.1,410,373.1,407.9z"/>
<path class="st22" d="M371.5,396.9c4.1-10.1,7.3-20.2,8-24.3c1.8-9.8-4.4-19.2-13.9-21c-9.5-1.8-12.6,5-14.4,14.8
	c0,0.2-0.1,0.5-0.1,0.8C367.8,377.2,369.9,394.5,371.5,396.9z"/>
<path class="st21" d="M484.1,419.7l-6.1-3.3c-2.7-1.4-6.6,1.8-7.1,2.3c0.1,0,0.3,0,0.4,0c5.4,0,10.3,2.7,13.5,6.8
	c0.3,0.4,0.8,0.7,1.4,0.7c5.6,0.3,9.6,0.3,11.8,0.4c1.2,0,1.8-1.5,0.8-2.3C495.4,422,486.2,421,484.1,419.7z"/>
<path class="st5" d="M349.3,312.9c1.7-2.3,8.5-11.4,9.6-13.7l0.1-0.1c0.1-0.2,0.2-0.4,0.3-0.5c2-3.4,6.4-4.6,9.8-2.6
	c3.4,2,4.6,6.4,2.6,9.8c-1.9,3.2-3.7,5.8-5.7,8.5c-1.4,1.8-2.8,3.5-4.3,5.3C360.6,318.4,349.3,313,349.3,312.9z"/>
<path class="st18" d="M380.8,332.7c1.5,0.3,3,0.6,4.5,0.9c5.2,1,10.1-3,10.1-8.3c0-8.8,0.1-16.8,0.2-22.1c0.1-3.8-2.9-6.9-6.7-7.1
	l-22.8-1c-3.5-0.2-6.6,2.4-7,5.9c-0.6,4.8-0.9,12-1.5,20c-0.3,4.2,2.5,8.1,6.7,8.9C369.8,330.9,375.3,331.7,380.8,332.7z"/>
<path class="st20" d="M376.4,288.7l2.3,0.3c2.3,0.3,4.4-1.4,4.6-3.6l1.3-10.7l-6.4-0.8L376.4,288.7z"/>
<g>
	<path class="st18" d="M375.2,298l8.5-1.8l-6.4-11.4l-7.5,3.2l2,7.9C372.2,297.4,373.7,298.3,375.2,298z"/>
</g>
<path class="st10" d="M369.8,288l7.5-3.2l2.6,4.6c-1.2,2.5-2.6,5.2-5.4,6c-0.9,0.3-1.9,0.2-2.8-0.1L369.8,288z"/>
<path class="st18" d="M370.3,293.1L370.3,293.1c5.4,0.7,10.4-3.2,11-8.7l1.3-11l-16.9-2.1c0,0-1,8.6-0.5,14.5
	C365.7,290.3,367.6,292.7,370.3,293.1z"/>
<rect x="379.8" y="277.6" transform="matrix(-0.9927 -0.1205 0.1205 -0.9927 726.5446 600.4944)" class="st20" width="3.2" height="1.5"/>
<path class="st18" d="M378.8,282c-0.3,2.1,0.6,4,1.8,4.2c1.3,0.2,3-2.5,3.3-4.6c0.3-2.1-1.1-3-2.3-3.1
	C380.3,278.2,379,279.8,378.8,282z"/>
<path class="st20" d="M364.1,275.8c-0.2-1.4-0.1-2.9,0.3-4.2c0,0,0.5-4.9,2.6-5.6c1.9-0.6,4.7,0.8,6.6,1.5c1.4,0.5,5.7,0.7,5.7,0.7
	c3.4,0.4,5.9,3.5,5.5,7l-0.2,1.3l-3.1,2.2l-1.1,2.5l-0.2,0c-1.1-0.1-1.9-1.1-1.8-2.2c0.1-1.8-0.9-3.4-2.7-3.6l-5.1-0.6
	c-3.1-0.4-4.9,1.1-5.2,3.4l-0.1,2L364.1,275.8z"/>
<g>
	<path class="st23" d="M408.7,391.5l4.6,31.6c0,0,3.7,5,17.5,5s17.5-5,17.5-5l4.6-31.6H408.7z"/>
	<path class="st24" d="M430.8,408.7c8.1,0,15.4-1,20-2.6l2.1-14.1h-44.1l2.1,14.1C415.4,407.7,422.7,408.7,430.8,408.7z"/>
	<path class="st23" d="M456,398.8c0,3.7-11.3,6.7-25.2,6.7c-13.9,0-25.2-3-25.2-6.7l-1.2-10h52.8L456,398.8z"/>
	<ellipse class="st25" cx="430.8" cy="388.8" rx="26.4" ry="7"/>
	<ellipse class="st26" cx="430.8" cy="388.6" rx="23.6" ry="5.3"/>
	<path class="st27" d="M408.3,390.2c3-2.1,12-3.7,22.5-3.7c10.6,0,19.5,1.6,22.5,3.7c0.7-0.5,1.1-1,1.1-1.6c0-2.9-10.6-5.3-23.6-5.3
		c-13,0-23.6,2.4-23.6,5.3C407.2,389.2,407.6,389.7,408.3,390.2z"/>
	<g>
		<path class="st7" d="M449.4,346.7c1.7-6.1-0.4-11-2.6-16.5c-2.3-5.5-2.6-11.3-1.8-17c1.2-7.8,3.7-15.4,0.8-22.9
			c-2.8-7.2-5.5-16.6-13.2-19.6c-7.5-3.2-13.2,4.2-13.1,11c0.1,6.8,4,13,2.1,19.7c-1.5,5.5-3.4,12.1-0.5,17.4
			c3.4,6.6,9.9,11.2,7.5,19.1c-0.9,2.9-2.5,5.3-2.8,8.2c-0.4,4.3,1.8,5.4,3.8,8.8c8.3,14.6-6.9,20.4-0.9,36.4
			c0.2,0.4,0.6,0.7,1.1,0.7l0,0c0.5,0,1-0.4,1-0.9c1.9-17.9,14.6-11.7,14.8-26.2c0-2.7-0.8-5.4-0.5-8.1
			C445.3,352.7,448.5,350.5,449.4,346.7z"/>
		<path class="st28" d="M432.5,352.1c0,0,0.7,8.2,6.7,9.2"/>
		<path class="st28" d="M426.8,312.5c0,0,0.4,9.1,8.1,11.6"/>
		<path class="st28" d="M443.9,300c0,0-0.4,9.5-7.8,11"/>
		<path class="st28" d="M443.6,329.8c0,0,1.8,10.4-4.3,13.1"/>
		<path class="st28" d="M442.1,364.7c0,0,0,9.5-9.5,10.4"/>
		<path class="st28" d="M430.2,286.8c0,0,0.7,9.6,6.4,11.2"/>
		<path class="st28" d="M430.8,280.2c6.6,6.5,6,21.2,5.5,28c-0.4,4.9-3.1,16.5,0,24.8c3.2,8.9,6.1,18.3,2.4,30.5
			c-2.6,8.5-10.9,12.6-9.2,28.2"/>
		<path class="st29" d="M445.4,364.1c0,0.3,0,0.5,0,0.8c-0.1,9.5-5.6,10.1-9.9,14.5c0.5-2.5,0.6-5.7,2.3-7.7c1.9-2.1,4.3-2.5,6.2-5
			C444.6,365.7,445.1,364.9,445.4,364.1z M446.8,330.2c-2.3-5.5-2.6-11.3-1.8-17c0.1-0.6,0.2-1.1,0.3-1.7c-3,1.1-5.3,3.3-6.7,6.3
			c-4.2,8.9-0.9,14.9,2.7,21.6c2.9,5.5,1,10.5,1.7,16.3c0.3,2.4,1.3,4.3,2.1,6.1c-0.2-1.7-0.5-3.3-0.3-5c0.4-4.1,3.6-6.3,4.6-10.2
			C451.2,340.5,449.1,335.7,446.8,330.2z M431.2,376.7c-0.6-1.3-1.3-2.6-1.4-4c-1.9,5-4,10.1-1.7,17.3c0,0,0,0,0,0.1
			c0.1,0.4,0.3,0.8,0.4,1.2c0,0.1,0.1,0.2,0.1,0.2c0,0,0,0,0,0c0.1,0.1,0.1,0.1,0.2,0.2c0,0,0,0,0,0c0.2,0.2,0.5,0.3,0.7,0.3h0
			c0.2,0,0.4-0.1,0.6-0.2c0.3-0.2,0.4-0.5,0.4-0.7c0,0,0,0,0-0.1c0.3-2.7,0.8-4.8,1.5-6.5c-0.4,0.3-0.8,0.5-1.2,0.7
			C432.2,382.4,433.1,380.7,431.2,376.7z"/>
	</g>
	<g>
		<path class="st9" d="M468.9,343.5c-3.7-6.8-3.7-11.3-3.3-18.6c0.4-7.4-1.9-17.4-11-19c-6.8-1.2-12.4,1.5-14.9,6.9
			c-4.2,8.9-0.9,14.9,2.7,21.6c2.9,5.5,1,10.5,1.7,16.3c0.6,5.8,5.8,8.5,1.4,14.5c-1.9,2.5-4.3,2.9-6.2,5c-1.9,2.3-1.8,5.8-2.5,8.5
			c-1.7,6.7-8.2,5.7-8.5,12.5c0,0.5,0.4,1,0.7,1c0.4,0,0.6,0,0.9-0.4c1.5-2.7,4.1-2.3,6.9-3.6c2.1-0.9,2.7-3.5,7.8-4.1
			c6.6-0.8,12.6,3.5,15.9-5.4c1.2-3.1,0.8-5.8,1.4-8.9c0.6-4.1,3.3-6.6,6-9.5C472.8,354.8,472.2,349.5,468.9,343.5z"/>
		<g>
			<path class="st30" d="M445.4,322.3c0,0,4.3,7.7,10.4,8.2"/>
			<path class="st30" d="M450,346.1c0,0-0.3,13.8,4.1,16.8"/>
			<path class="st30" d="M464.3,336.8c0,0-0.5,11.9-8,14"/>
			<path class="st30" d="M458.3,370.8c0,0-3.8,11.4-14.6,9.6"/>
			<path class="st30" d="M456.7,311.7c0,0,3.1,9-1.6,13.3"/>
			<path class="st30" d="M429.2,391.4c1-3.7,6.5-5.1,8.1-6.1c17.5-11.4,24.3-33.4,15.7-70.7"/>
		</g>
		<path class="st29" d="M428.4,391.1c0,0.5,0.4,1,0.7,1c0,0,0,0,0.1,0c1.1-0.8-0.3-2,1.4-6C429.4,387.2,428.5,388.7,428.4,391.1z"/>
	</g>
	<g>
		<path class="st9" d="M429.7,374.7c-2.1-4.4-0.1-10.1-2.1-13.3c-2.5-4-6.6-1-11.4-6.5c-4-4.6-1.1-11.1-10.3-15.9
			c-2.8-1.5-6-0.7-7.1,2.4c-1.3,3,0.8,7.2,1.7,10.1c0.9,2.4,2.1,4.2,1.6,6.9c0,0,0,0.1,0,0.1c-0.5,2.1-1.9,3.2-1.2,5.6
			c1.5,5.9,9.9,5.4,14.2,9.1c3,2.6,0.3,5.7,3.2,9.7c2.9,3.9,4.4-0.3,9.6,8.9c0.2,0.3,0.6,0.4,0.9,0.3l0,0c0.2-0.1,0.4-0.4,0.3-0.7
			C428.4,381.4,432.7,381.2,429.7,374.7z"/>
		<g>
			<path class="st30" d="M401.5,346.2c0,0,0.5,4.6,4.8,6"/>
			<path class="st30" d="M403.9,359.1c0,0,4.4,5,9.8,3"/>
			<path class="st30" d="M420.1,359.4c0,0,3.3,5.4,0.8,7.9"/>
			<path class="st30" d="M425.1,369.7c0,0,1.9,6.7-1.4,9.1"/>
			<path class="st30" d="M409.7,349.2c0,0,2.8,7,0.4,9.5"/>
			<path class="st30" d="M413.7,369.2c0,0,2.5,4.3,9.6,3.8"/>
			<path class="st30" d="M418.5,378.3c0,0,0.7,4.3,7.7,5.3"/>
			<path class="st30" d="M428.4,391.8c-0.3-9.1-5.1-9.9-5-15.3c0.1-4.2,0-8.2-5.1-11.3c-8.8-5.2-12.4-10.7-14.2-22.4"/>
		</g>
	</g>
</g>
<path class="st18" d="M311.1,354.8c0,0,6-0.3,6.7,1.5c0.7,1.8,0.8,3.1-1.8,4.2c-2.6,1.1-6.7,1.4-9.1,1c-2.5-0.3-6.4-2.6-6.6-3.1
	c-0.9-1.9,3.5-0.8,5.6-0.4c2.2,0.4,4.6,0.7,4.6-0.4c-0.1-1.1-4.3-1.6-4.8-2.8C305.1,353.6,311.1,354.8,311.1,354.8z"/>
<path class="st10" d="M293,315.8c0,0,6-0.6,6.4-2.5c0.4-1.9,0.4-3.2-2.4-3.9c-2.7-0.7-6.8-0.4-9.2,0.3c-1.8,0.5-4.3,2.3-5.5,3.3
	l6.1,0c2.5,0,3.4-0.8,3.5,0.1c0.1,1.1-4,2.2-4.4,3.5C287.2,317.9,293,315.8,293,315.8z"/>
<path class="st18" d="M483.9,423.3c-3.6-2.4-7.7-4-11.9-5c-0.2,0-0.4,0-0.6,0.1c-0.7,0.4-1.2,0.8-1.4,1c-0.1,0.1-0.2,0.1-0.4,0.2
	c-5.8,1-12.4,0.4-19.2-0.8c-0.7-0.1-1.1,0.6-0.8,1.2l3.9,5.9c0.1,0.2,0.4,0.3,0.6,0.3c2.2,0,12.6,0.2,18.8,0.5c5,0.2,9.3,0.2,12.8,0
	c0.7,0,1-0.8,0.5-1.3C485.6,424.6,484.8,423.9,483.9,423.3z"/>
<path class="st31" d="M403.1,408c-3.3-0.3-5.8-3.3-5.5-6.6c1.2-13.3,1-27.9,0.2-32.8c-1.6-9.7-10.5-16.2-19.9-14.6
	c-9.4,1.6-9.9,8.9-8.3,18.5c1.3,7.5,6.8,36.6,13.6,48.6c0,0.1,0.1,0.1,0.1,0.2c2,3.4,4,5.4,6.1,5.1c0,0,0,0,0,0
	c1.7,0.7,67.4-0.2,67.4-0.2s0.2-5,0.5-6.7C444.4,413.9,417.1,409.3,403.1,408z"/>
<path class="st32" d="M497.6,431.1H140.1c-1.3,0-2.4-1.1-2.4-2.4l0,0c0-1.3,1.1-2.4,2.4-2.4h357.5c1.3,0,2.4,1.1,2.4,2.4l0,0
	C500,430.1,498.9,431.1,497.6,431.1z"/>
<path class="st5" d="M365.8,295.1l3.7,0.2c1.2,3,3.8,5.5,8,5.7c4.2,0.2,7.1-2,8.5-4.9l3.4,0.2c3.5,0.2,6.2,3,6.1,6.5
	c-0.1,9-0.3,26.4,0,42.1c0.3,14.2,5.1,26.3,2.3,30.1c0,0-38,2.3-47.3-7.8c1.8-9.4,2.9-21.5,4.5-33.9c1.6-12.4,3.2-25.1,4.1-32.2
	C359.5,297.4,362.5,294.9,365.8,295.1z"/>
<path class="st18" d="M398.1,304.7c-4.3,27.5-32.8,58.2-81.8,55.4c-1.1-0.1-2-1-1.9-2.2c0.1-1,0.8-1.8,1.8-1.9
	c33.2-4.5,61.2-20.7,67.8-53.4c0.9-4.7,4.8-6.8,8.5-6.1C396.2,297.3,398.7,300.9,398.1,304.7z"/>
<g>
	<path class="st5" d="M379.1,315.5c3.3-7.2,4.4-11.7,4.4-11.8c0,0,0.3-1,0.4-1.4c0.7-2.8,2.2-4.5,2.2-4.5s3.1-3.4,9.1-0.5
		c4.8,2.3,3.5,7.9,3.5,7.9c-0.2,0.8,0.5,6.9-7.1,18.2C391.6,323.5,378.6,316.6,379.1,315.5z"/>
</g>
<path class="st9" d="M95.7,398.3c-9.8,0-17.7-7.9-17.7-17.7c0-9.8,7.9-17.7,17.7-17.7c9.8,0,17.7,7.9,17.7,17.7
	C113.4,390.4,105.5,398.3,95.7,398.3z M131.8,388.4v-15.6h-6.8c-0.7-2.6-1.7-5.1-3.1-7.4l4.8-4.8l-11.1-11.1l-4.8,4.8
	c-2.3-1.3-4.8-2.4-7.4-3.1v-6.8H87.9v6.8c-2.6,0.7-5.1,1.7-7.4,3.1l-4.8-4.8l-11.1,11.1l4.8,4.8c-1.3,2.3-2.4,4.8-3.1,7.4h-6.8v15.6
	h6.8c0.7,2.6,1.7,5.1,3.1,7.4l-4.8,4.8l11.1,11.1l4.8-4.8c2.3,1.3,4.8,2.4,7.4,3.1v6.8h15.6V410c2.6-0.7,5.1-1.7,7.4-3.1l4.8,4.8
	l11.1-11.1l-4.8-4.8c1.3-2.3,2.4-4.8,3.1-7.4H131.8z"/>
</svg>
